<mxfile host="app.diagrams.net" modified="2022-10-22T01:00:06.558Z" agent="5.0 (Macintosh; Intel Mac OS X 10_15_7) AppleWebKit/537.36 (KHTML, like Gecko) Chrome/106.0.0.0 Safari/537.36" etag="8Lit4Pkj91ddt82yvmJg" version="20.4.0" type="github">
  <diagram id="YJxi-T8DWlhyjNu1W5PI" name="第 1 页">
    <mxGraphModel dx="466" dy="773" grid="1" gridSize="10" guides="1" tooltips="1" connect="1" arrows="1" fold="1" page="1" pageScale="1" pageWidth="827" pageHeight="1169" math="0" shadow="0">
      <root>
        <mxCell id="0" />
        <mxCell id="1" parent="0" />
        <mxCell id="BfSqas4AxYCbSwTuhwt_-12" style="edgeStyle=orthogonalEdgeStyle;rounded=0;orthogonalLoop=1;jettySize=auto;html=1;exitX=0.5;exitY=1;exitDx=0;exitDy=0;entryX=0.5;entryY=0;entryDx=0;entryDy=0;" edge="1" parent="1" source="BfSqas4AxYCbSwTuhwt_-1" target="BfSqas4AxYCbSwTuhwt_-5">
          <mxGeometry relative="1" as="geometry" />
        </mxCell>
        <mxCell id="BfSqas4AxYCbSwTuhwt_-1" value="Release Binary" style="rounded=1;whiteSpace=wrap;html=1;fillColor=#fff2cc;strokeColor=#d6b656;" vertex="1" parent="1">
          <mxGeometry x="40" y="220" width="120" height="60" as="geometry" />
        </mxCell>
        <mxCell id="BfSqas4AxYCbSwTuhwt_-14" style="edgeStyle=orthogonalEdgeStyle;rounded=0;orthogonalLoop=1;jettySize=auto;html=1;exitX=0.5;exitY=1;exitDx=0;exitDy=0;" edge="1" parent="1" source="BfSqas4AxYCbSwTuhwt_-2" target="BfSqas4AxYCbSwTuhwt_-5">
          <mxGeometry relative="1" as="geometry" />
        </mxCell>
        <mxCell id="BfSqas4AxYCbSwTuhwt_-2" value="Cross-compiled" style="rounded=1;whiteSpace=wrap;html=1;fillColor=#fff2cc;strokeColor=#d6b656;" vertex="1" parent="1">
          <mxGeometry x="217" y="220" width="120" height="60" as="geometry" />
        </mxCell>
        <mxCell id="BfSqas4AxYCbSwTuhwt_-15" style="edgeStyle=orthogonalEdgeStyle;rounded=0;orthogonalLoop=1;jettySize=auto;html=1;exitX=0.5;exitY=1;exitDx=0;exitDy=0;" edge="1" parent="1" source="BfSqas4AxYCbSwTuhwt_-3" target="BfSqas4AxYCbSwTuhwt_-5">
          <mxGeometry relative="1" as="geometry" />
        </mxCell>
        <mxCell id="BfSqas4AxYCbSwTuhwt_-3" value="gccgc" style="rounded=1;whiteSpace=wrap;html=1;fillColor=#fff2cc;strokeColor=#d6b656;" vertex="1" parent="1">
          <mxGeometry x="393" y="220" width="120" height="60" as="geometry" />
        </mxCell>
        <mxCell id="BfSqas4AxYCbSwTuhwt_-16" style="edgeStyle=orthogonalEdgeStyle;rounded=0;orthogonalLoop=1;jettySize=auto;html=1;exitX=0.5;exitY=1;exitDx=0;exitDy=0;" edge="1" parent="1" source="BfSqas4AxYCbSwTuhwt_-4" target="BfSqas4AxYCbSwTuhwt_-5">
          <mxGeometry relative="1" as="geometry" />
        </mxCell>
        <mxCell id="BfSqas4AxYCbSwTuhwt_-4" value="C + Go1.4" style="rounded=1;whiteSpace=wrap;html=1;fillColor=#fff2cc;strokeColor=#d6b656;" vertex="1" parent="1">
          <mxGeometry x="570" y="220" width="120" height="60" as="geometry" />
        </mxCell>
        <mxCell id="BfSqas4AxYCbSwTuhwt_-11" style="edgeStyle=orthogonalEdgeStyle;rounded=0;orthogonalLoop=1;jettySize=auto;html=1;exitX=0.5;exitY=1;exitDx=0;exitDy=0;" edge="1" parent="1" source="BfSqas4AxYCbSwTuhwt_-5" target="BfSqas4AxYCbSwTuhwt_-6">
          <mxGeometry relative="1" as="geometry" />
        </mxCell>
        <mxCell id="BfSqas4AxYCbSwTuhwt_-5" value="Bootstrap Toolchain" style="rounded=1;whiteSpace=wrap;html=1;fillColor=#ffe6cc;strokeColor=#d79b00;" vertex="1" parent="1">
          <mxGeometry x="294" y="380" width="120" height="60" as="geometry" />
        </mxCell>
        <mxCell id="BfSqas4AxYCbSwTuhwt_-6" value="Latest Go" style="rounded=1;whiteSpace=wrap;html=1;fillColor=#d5e8d4;strokeColor=#82b366;" vertex="1" parent="1">
          <mxGeometry x="294" y="510" width="120" height="60" as="geometry" />
        </mxCell>
        <mxCell id="BfSqas4AxYCbSwTuhwt_-17" value="GOROOT_BOOTSTRAP" style="text;html=1;align=center;verticalAlign=middle;resizable=0;points=[];autosize=1;strokeColor=none;fillColor=none;" vertex="1" parent="1">
          <mxGeometry x="353" y="345" width="160" height="30" as="geometry" />
        </mxCell>
        <mxCell id="BfSqas4AxYCbSwTuhwt_-18" value="./all.bash" style="text;html=1;align=center;verticalAlign=middle;resizable=0;points=[];autosize=1;strokeColor=none;fillColor=none;" vertex="1" parent="1">
          <mxGeometry x="355" y="465" width="70" height="30" as="geometry" />
        </mxCell>
      </root>
    </mxGraphModel>
  </diagram>
</mxfile>
